<?xml version="1.0" encoding="UTF-8"?><svg id="a" xmlns="http://www.w3.org/2000/svg" viewBox="0 0 80.73 72.25"><path d="M66.97,37.18c-1.04-1.17-2.77-2.26-5.12-3.23l-3.05-1.28c-3.05-1.26-4.6-2.93-4.6-4.98,0-.51.11-1.03.33-1.54s.52-.96.9-1.34c.92-.93,2.18-1.4,3.76-1.4,1.09,0,2.07.23,2.9.69.84.46,1.61,1.18,2.31,2.14.39.53.72,1.12,1,1.74.28.63.62,1.55,1,2.73l.02.07h.67l-.16-7.66h-.67l-.02.07c-.16.6-.46.89-.93.89-.2,0-.42-.03-.67-.1-.26-.07-.75-.23-1.47-.48-.97-.35-1.75-.59-2.33-.71-.59-.12-1.23-.18-1.91-.18-2.11,0-3.96.63-5.5,1.86-.87.7-1.57,1.54-2.05,2.51-.49.97-.74,2-.74,3.05,0,1.71.64,3.18,1.9,4.38.45.43,1.05.86,1.79,1.28.73.41,1.79.93,3.17,1.53,1.56.69,2.72,1.26,3.47,1.71.75.44,1.33.91,1.74,1.39.4.47.71,1.03.95,1.68.23.65.35,1.3.35,1.92,0,1.44-.54,2.65-1.6,3.6-1.06.94-2.43,1.42-4.06,1.42-2.34,0-4.32-1.05-5.87-3.11-.83-1.12-1.55-2.69-2.15-4.64l-.02-.07-.67-.02h0s-.02.1-.02.1c-.22,1.16-.47,2.1-.73,2.81-.26.7-.6,1.34-1.01,1.89-.6.81-1.39,1.42-2.33,1.8-.95.39-2.13.59-3.52.59s-2.4-.21-3.21-.62c-.79-.41-1.4-1.06-1.8-1.94-.23-.5-.39-1.16-.47-1.96-.08-.81-.13-2.05-.13-3.72v-10.85c0-1.3.07-2.28.21-2.89.14-.61.4-1.12.79-1.51.31-.31.67-.55,1.06-.69.4-.15.93-.24,1.57-.28h.09v-.62h-22.77v.62h.09c.68.04,1.22.14,1.63.3.4.16.77.41,1.09.77.35.39.6.88.73,1.48.13.6.2,1.56.2,2.84v5.94h-12.42v-5.94c0-1.26.07-2.22.2-2.83.13-.6.38-1.1.73-1.49.32-.35.69-.61,1.09-.77.41-.16.95-.26,1.61-.3h.09v-.62H.91v.62h.09c.66.04,1.21.14,1.62.3.41.16.77.41,1.08.77.36.39.61.88.74,1.48.13.61.19,1.56.19,2.84v13.86c0,1.28-.06,2.23-.19,2.84-.13.59-.38,1.09-.74,1.48-.31.34-.67.59-1.07.76-.41.16-.96.27-1.63.3h-.09v.62h11.54v-.62h-.09c-.67-.04-1.22-.14-1.63-.31-.41-.16-.77-.42-1.07-.76-.35-.39-.6-.89-.73-1.49-.13-.61-.2-1.57-.2-2.83v-6.85h12.42v6.85c0,1.28-.07,2.23-.2,2.84-.13.6-.38,1.09-.73,1.48-.32.34-.69.59-1.09.76-.41.16-.96.27-1.63.3h-.09v.62h32.19s.66,0,.66,0l.03-.06c.25-.57.68-.84,1.34-.84.21,0,.4.02.56.07.12.04.5.17,1.6.58,1.72.64,3.55.96,5.41.96,2.04,0,3.85-.4,5.36-1.2,1.51-.8,2.67-1.95,3.42-3.43.54-1.06.81-2.19.81-3.35,0-1.75-.61-3.3-1.8-4.62ZM27.22,48.13c-.41-.16-.77-.42-1.09-.76-.36-.4-.6-.9-.73-1.5-.13-.6-.2-1.55-.2-2.82v-13.86c0-1.27.07-2.22.2-2.83.13-.6.38-1.1.73-1.49.32-.35.69-.61,1.09-.77.39-.15.92-.25,1.55-.29.59.03,1.09.11,1.47.25.39.14.75.38,1.08.69.39.39.66.89.8,1.51.15.62.22,1.6.22,2.92v13.86c0,1.27-.07,2.22-.2,2.83-.13.6-.38,1.1-.73,1.49-.63.69-1.54,1.04-2.7,1.04h-.04c-.58-.04-1.08-.14-1.45-.28Z"/><path d="M4.65,11.82v7.1c0,.1.08.19.19.19h3.71c.1,0,.19-.08.19-.19v-3.02c0-.1.08-.19.19-.19h62.9c.1,0,.19.08.19.19v40.44c0,.1-.08.19-.19.19H8.91c-.1,0-.19-.08-.19-.19v-3.02c0-.1-.08-.19-.19-.19h-3.71c-.1,0-.19.08-.19.19v7.1c0,.1.08.19.19.19h71.07c.1,0,.19-.08.19-.19V11.82c0-.1-.08-.19-.19-.19H4.83c-.1,0-.19.08-.19.19Z"/></svg>