<?xml version="1.0" encoding="UTF-8"?><svg id="a" xmlns="http://www.w3.org/2000/svg" viewBox="0 0 191.29 64.29"><defs><style>.b{fill:#c4a369;}.c{fill:#efeae1;}</style></defs><path class="c" d="M62.7,58.92c-1.55-.83-2.58-1.42-2.73-2.05-.09-.41-.01-.78.21-1.05.29-.35.81-.56,1.43-.56,1.33,0,2.19,1.59,2.71,2.54l.03.06s.02.02.03.02h.08s.03-.02.03-.03v-2.42s0-.02-.02-.03c-.76-.39-1.59-.55-2.87-.55s-2.28.38-2.8,1.03c-.34.43-.45.96-.31,1.56.22,1.02,1.05,1.86,2.79,2.81,1.21.66,2.01,1.15,2.09,1.8.07.53-.05.98-.35,1.31-.29.33-.74.51-1.26.51-1.5,0-2.69-1.87-3.33-2.88,0,0-.02-.02-.03-.02h-.08s-.03.02-.03.03v2.6s0,.02.02.03c.78.4,2.09.65,3.35.65,1.17,0,2.18-.39,2.77-1.06.43-.49.61-1.1.52-1.77-.09-.9-.85-1.76-2.26-2.54Z"/><path class="c" d="M74.6,63.03s-.03-.01-.04,0c-.45.34-1.01.49-1.8.49s-1-.27-1-1.25c0-.44,0-1.03,0-1.66,0-.73.01-1.56.01-2.3v-2.48h2.7s.03-.01.03-.03l.02-.61s0-.02,0-.02c0,0-.02-.01-.02-.01h-2.7v-2.53s-.02-.03-.03-.03h-.3s-.03,0-.05.03c-.17.19-.81.88-2.94,2.99,0,0,0,.01,0,.02v.18s.02.03.03.03h1.38v6.15c0,1.78.44,2.3,1.98,2.3.99,0,1.85-.32,2.87-1.06,0,0,.01-.01.01-.02,0,0,0-.02,0-.03l-.14-.14Z"/><path class="c" d="M86.94,63.32c-.54,0-.67-.35-.67-1.7v-6.45s-.02-.03-.03-.03h-2.53s-.03.02-.03.03v.02s.02.03.03.03h.1c.27,0,.57.92.57,1.76v6.02c-.32.12-.95.18-1.87.18-1.55,0-2.43-.76-2.43-2.09v-5.9s-.02-.03-.03-.03h-2.53s-.03.02-.03.03v.02s.02.03.03.03h.1c.27,0,.57.92.57,1.76v4.25c0,1.93,1.06,3.04,2.91,3.04,1.23,0,2.34-.38,3.28-1.12v1.07s.02.03.03.03h.36s0,0,.01,0l2.17-.88s.02-.02.02-.04c0-.02-.02-.03-.03-.03Z"/><path class="c" d="M100.49,63.34c-.54,0-.67-.35-.67-1.7l-.02-10.84s-.02-.03-.03-.03h-.36s0,0,0,0l-2.17.6s-.03.02-.02.04c0,.02.02.03.03.03.54,0,.67.35.67,1.7v2.68c-.67-.59-1.58-.94-2.46-.94-2.78,0-4.65,2.1-4.65,5.21,0,2.51,1.59,4.2,3.96,4.2.98,0,2.21-.49,3.16-1.26v1.23s.02.03.03.03h.36s0,0,.01,0l2.17-.88s.02-.02.02-.04c0-.02-.02-.03-.03-.03ZM92.75,59.49c0-2.45,1.05-4.09,2.62-4.09.96,0,1.95.49,2.54,1.26l.02,6.24c-.35.22-1.22.37-2.17.37-1.8,0-3-1.52-3-3.78Z"/><path class="c" d="M106.49,53.12c.75,0,1.25-.44,1.25-1.09s-.5-1.09-1.25-1.09-1.25.44-1.25,1.09.5,1.09,1.25,1.09Z"/><path class="c" d="M108.21,63.92h-.1c-.27,0-.57-.92-.57-1.76v-6.97s-.02-.03-.03-.03h-.36s0,0,0,0l-2.17.6s-.03.02-.02.04c0,.02.02.03.03.03.54,0,.67.35.67,1.7v4.64c0,.84-.3,1.76-.57,1.76h-.1s-.03.02-.03.03v.02s.02.03.03.03h3.24s.03-.02.03-.03v-.02s-.02-.03-.03-.03Z"/><path class="c" d="M117.26,54.88c-3.05,0-5.09,1.89-5.09,4.71s2.05,4.71,5.09,4.71,5.09-1.89,5.09-4.71-2.05-4.71-5.09-4.71ZM117.26,63.87c-1.8,0-3-1.72-3-4.29s1.21-4.29,3-4.29,3,1.72,3,4.29-1.21,4.29-3,4.29Z"/><path class="c" d="M132.96,61.46c-.09-.9-.85-1.76-2.26-2.54-1.55-.83-2.58-1.42-2.73-2.05-.09-.41-.01-.78.21-1.05.29-.35.81-.56,1.43-.56,1.33,0,2.19,1.59,2.71,2.54l.03.06s.02.02.03.02h.08s.03-.02.03-.03v-2.42s0-.02-.02-.03c-.76-.39-1.59-.55-2.87-.55s-2.28.38-2.8,1.03c-.34.43-.45.96-.31,1.56.22,1.02,1.05,1.86,2.79,2.81,1.21.66,2.01,1.15,2.09,1.8.07.53-.05.98-.35,1.31-.29.33-.74.51-1.26.51-1.5,0-2.69-1.87-3.33-2.88,0,0-.02-.02-.03-.02h-.08s-.03.02-.03.03v2.6s0,.02.02.03c.78.4,2.09.65,3.35.65,1.17,0,2.18-.39,2.77-1.06.43-.49.61-1.1.52-1.77Z"/><path class="b" d="M171.92,3.74H19.37c-.07,0-.12.05-.12.12v6.78c0,.07.05.12.12.12h1.69c.07,0,.12-.05.12-.12v-4.97h148.93v4.97c0,.07.05.12.12.12h1.69c.07,0,.12-.05.12-.12V3.86c0-.07-.05-.12-.12-.12ZM171.92,3.86H19.37h152.55Z"/><path class="b" d="M51.25,58.62h-30.07v-4.97c0-.07-.05-.12-.12-.12h-1.69c-.07,0-.12.05-.12.12v6.78c0,.07.05.12.12.12h31.88c.07,0,.12-.05.12-.12v-1.69c0-.07-.05-.12-.12-.12ZM51.25,60.43h0v-1.69h-30.19,30.19v1.69Z"/><path class="b" d="M171.92,53.53h-1.69c-.07,0-.12.05-.12.12v4.97h-30.07c-.07,0-.12.05-.12.12v1.69c0,.07.05.12.12.12h31.88c.07,0,.12-.05.12-.12v-6.78c0-.07-.05-.12-.12-.12ZM140.04,58.74h30.19-30.19Z"/><path class="c" d="M21.51,43.26c-.13-.02-.26.05-.31.17l-.14.36c-.4.98-3.72,2.28-6.57,2.28h-7.59v-25.16c0-2.09.76-3.9,1.14-3.9h.24c.15,0,.27-.16.27-.32s-.12-.28-.27-.28H.27c-.15,0-.27.16-.27.32s.12.28.27.28h.24c.37,0,1.14,1.8,1.14,3.9v22.25c0,2.09-.76,3.9-1.14,3.9h-.24c-.15,0-.27.16-.27.32s.12.28.27.28h20.43c.13,0,.24-.09.27-.22l.09-.45h-.03c.41-.78.7-3.3.7-3.33v-.12c0-.13-.09-.25-.23-.27Z"/><path class="c" d="M56.23,47.06h-.18c-.36-.05-1.65-1.78-2.57-3.77.02-.06.02-.13,0-.19l-11.39-27.15c-.04-.1-.14-.17-.25-.17h-1.18c-.12,0-.22.07-.26.18l-9.84,27.15c-.83,2.13-2.28,4-2.71,4h-.24c-.15,0-.27.16-.27.32s.12.28.27.28h5.65c.15,0,.27-.16.27-.32s-.12-.28-.27-.28h-.38c-.06,0-.16-.02-.27-.17-.41-.57-.47-2.36.15-4.25l2.05-5.87h10.49l2.71,6.81c.51,1.39.43,2.65.08,3.17-.11.17-.24.25-.39.26h-.38c-.15,0-.27.16-.27.32s.12.28.27.28h8.9c.15,0,.27-.16.27-.32s-.12-.28-.27-.28ZM44.67,35.16h-9.33l4.38-12.55,4.95,12.55Z"/><path class="c" d="M86.21,16.51h-5.27c-.15,0-.27.16-.27.32s.12.28.27.28h.38c.07,0,.11.02.14.09.26.48-.14,2.36-1.38,4.36-.03.02-.06.05-.08.08l-6.06,9.71-6.21-10.88c-.8-1.56-1.06-2.95-.84-3.34.03-.06.06-.06.08-.06h.28c.15,0,.27-.16.27-.32s-.12-.28-.27-.28h-8.85c-.15,0-.27.16-.27.32s.12.28.27.28c.26,0,1.1.36,3.2,3.67l8.01,13.8v8.68c0,2.09-.76,3.9-1.14,3.9h-.24c-.15,0-.27.16-.27.32s.12.28.27.28h8c.15,0,.27-.16.27-.32s-.12-.28-.27-.28h-.24c-.37,0-1.14-1.8-1.14-3.9v-10.31l7.67-12.03c2.31-3.28,3.3-3.77,3.68-3.77.15,0,.27-.16.27-.32s-.12-.28-.27-.28Z"/><path class="c" d="M120.66,17.36s.03-.1.03-.15l-.05-.49c-.01-.14-.13-.25-.27-.25h-27.68c-.14,0-.26.11-.27.25l-.05.49h.01c-.07.28-.12.86-.24,2.07-.06.59-.12,1.25-.14,1.34-.03.14.06.28.2.32.14.04.29-.04.33-.18l.14-.45c.33-.99,3.22-2.26,5.86-2.26h5.33v25.16c0,2.09-.76,3.9-1.14,3.9h-.24c-.15,0-.27.16-.27.32s.12.28.27.28h8c.15,0,.27-.16.27-.32s-.12-.28-.27-.28h-.24c-.37,0-1.14-1.8-1.14-3.9v-25.16h5.33c2.63,0,5.53,1.28,5.86,2.26l.14.45c.04.14.18.22.32.19.14-.03.23-.16.21-.31-.07-.5-.12-1.11-.16-1.7-.04-.54-.09-1.09-.15-1.58Z"/><path class="c" d="M141.41,15.82c-10.92,0-15.81,8.17-15.81,16.26s4.89,16.26,15.81,16.26,15.81-8.17,15.81-16.26-4.89-16.26-15.81-16.26ZM151.49,32.08c0,7.31-3.12,14.69-10.08,14.69s-10.08-7.38-10.08-14.69,3.12-14.69,10.08-14.69,10.08,7.38,10.08,14.69Z"/><path class="c" d="M191.01,16.47h-4.71c-.15,0-.27.16-.27.32s.12.28.27.28h.24c.37,0,1.1,1.72,1.14,3.74-.03.04-.05.1-.05.15v19.5l-16.78-23.87c-.05-.07-.14-.12-.23-.12h-5.84c-.15,0-.27.12-.27.28v.04c0,.15.12.28.27.28h.24c.37,0,1.14,1.8,1.14,3.9v22.25c0,2.09-.76,3.9-1.14,3.9h-.24c-.15,0-.27.16-.27.32s.12.28.27.28h4.71c.15,0,.27-.16.27-.32s-.12-.28-.27-.28h-.24c-.37,0-1.14-1.8-1.14-3.9v-21.81c5.51,7.57,10.93,14.99,16.41,22.5l3.29,4.5c.05.07.13.11.22.11h1.32c.15,0,.27-.12.27-.28v-27.28c0-2.09.76-3.9,1.14-3.9h.24c.15,0,.27-.16.27-.32s-.12-.28-.27-.28Z"/></svg>