<?xml version="1.0" encoding="UTF-8"?><svg id="a" xmlns="http://www.w3.org/2000/svg" viewBox="0 0 49.47 62.55"><defs><style>.b{fill:#bc9a57;}.c{fill:#c4a369;}.d{fill:#efeae1;}</style></defs><path class="b" d="M49.47,62.55H0V0h49.47v62.55ZM1.81,60.74h45.84V1.81H1.81v58.93Z"/><path class="d" d="M43.51,47.14c-.25-.05-.5.09-.59.33l-.24.64c-.7,1.71-6.54,3.99-11.54,3.99h-13.33V15.57c0-1.59.28-3.39.75-4.8.51-1.52,1.03-2.01,1.21-2.01h.41c.29,0,.53-.24.53-.53v-.07c0-.29-.24-.53-.53-.53H6.99c-.29,0-.53.24-.53.53v.07c0,.29.24.53.53.53h.41c.18,0,.7.49,1.21,2.01.47,1.41.75,3.21.75,4.8v31.45c0,1.59-.28,3.39-.75,4.8-.51,1.52-1.03,2.01-1.21,2.01h-.41c-.29,0-.53.24-.53.53v.07c0,.29.24.53.53.53h35.09c.25,0,.47-.18.52-.42l.14-.69c.1-.21.17-.51.27-.93.14-.61.29-1.37.4-1.9.15-.76.53-2.79.53-3.15v-.22c0-.26-.18-.48-.44-.52Z"/><path class="c" d="M36.84,47.35c-1.4,1.61-3.79,2.52-6.56,2.52-2.95,0-6.03-.6-7.85-1.53-.09-.04-.14-.14-.14-.24v-6.02c0-.15.12-.27.26-.27h.19c.1,0,.18.05.22.13,1.46,2.3,4.17,6.59,7.56,6.59,1.16,0,2.14-.4,2.78-1.12.64-.72.9-1.72.75-2.89-.16-1.43-1.99-2.52-4.73-4.03-4.07-2.23-6.03-4.22-6.56-6.65-.33-1.45-.07-2.72.76-3.76,1.22-1.54,3.7-2.46,6.62-2.46s4.95.37,6.73,1.29c.09.04.14.13.14.24v5.61c0,.15-.12.27-.26.27h-.19c-.1,0-.19-.05-.23-.14l-.07-.13c-1.18-2.17-3.15-5.79-6.12-5.79-1.39,0-2.54.45-3.17,1.22-.49.6-.64,1.39-.46,2.28.34,1.37,2.7,2.72,6.25,4.62,3.32,1.84,5.11,3.88,5.33,6.02.22,1.61-.22,3.07-1.25,4.24Z"/></svg>